<?xml version="1.0" encoding="utf-8"?>
<!-- Generator: Adobe Illustrator 19.0.1, SVG Export Plug-In . SVG Version: 6.00 Build 0)  -->
<!DOCTYPE svg PUBLIC "-//W3C//DTD SVG 1.1//EN" "http://www.w3.org/Graphics/SVG/1.1/DTD/svg11.dtd">
<svg version="1.1" id="Layer_1" xmlns="http://www.w3.org/2000/svg" xmlns:xlink="http://www.w3.org/1999/xlink" x="0px" y="0px"
	 width="461.3px" height="121.2px" viewBox="0 0 461.3 121.2" style="enable-background:new 0 0 461.3 121.2;" xml:space="preserve"
	>
<style type="text/css">
	.st0{fill:#FFFFFF;}
</style>
<g>
	<g>
		<g>
			<path class="st0" d="M40.8,0h5.2l14.6,32.1L75.3,0h5L62.4,37.5h-3.7L40.8,0z"/>
		</g>
		<g>
			<path class="st0" d="M80.4,121.2h-5.2L60.6,89.1l-14.7,32.1l-5,0l17.9-37.5h3.7L80.4,121.2z"/>
		</g>
		<g>
			<g>
				<path class="st0" d="M3.7,31.8l3.7-3.7l33,12.3L28.1,7.4l3.5-3.5L45.5,43l-2.6,2.6L3.7,31.8z"/>
			</g>
			<g>
				<path class="st0" d="M117.5,89.4l-3.7,3.7l-33-12.3L93,113.8l-3.5,3.5L75.7,78.2l2.6-2.6L117.5,89.4z"/>
			</g>
		</g>
		<g>
			<g>
				<path class="st0" d="M0,80.4v-5.2l32.1-14.6L0,45.9v-5l37.5,17.9l0,3.7L0,80.4z"/>
			</g>
			<g>
				<path class="st0" d="M121.2,40.8v5.2L89.1,60.6l32.1,14.7l0,5L83.7,62.4v-3.7L121.2,40.8z"/>
			</g>
		</g>
		<g>
			<g>
				<path class="st0" d="M31.8,117.5l-3.7-3.7l12.3-33L7.4,93l-3.5-3.5L43,75.7l2.6,2.6L31.8,117.5z"/>
			</g>
			<g>
				<path class="st0" d="M89.4,3.7l3.7,3.7l-12.3,33l33.1-12.3l3.5,3.5L78.2,45.5l-2.6-2.6L89.4,3.7z"/>
			</g>
		</g>
	</g>
	<g>
		<polygon class="st0" points="171.7,42.3 171.7,38.7 157.7,38.7 157.7,42.3 162.7,42.3 150.7,77.8 138.6,42.3 143.6,42.3 
			143.6,38.7 129.6,38.7 129.6,42.3 134,42.3 148.2,82.9 153,82.9 167.2,42.3 		"/>
		<path class="st0" d="M180.8,50.3c-8.4,0-15.3,6.1-15.3,16.3c0,9.6,7,16.3,16.3,16.3c7.1,0,11.5-4.3,11.5-4.3l-1.9-3.2
			c0,0-3.8,3.7-9.5,3.7c-6.4,0-11.9-4.5-12.1-12.5h23.9c0,0,0.2-1.2,0.2-2C193.9,57,189.4,50.3,180.8,50.3z M170,63.6
			c1-6.3,5.5-9.7,10.7-9.7c4.6,0,8.5,3.2,8.8,9.7H170z"/>
		<path class="st0" d="M228.1,62.4c0-7.7-2.7-12.1-10.3-12.1c-7.8,0-11.7,4.5-12.6,6.8l0-3.3c0-2.4-1.2-3.5-3.8-3.5h-5.9v3.5h4.2
			c0.9,0,1.4,0.4,1.4,1.4v24.3h-5.3V83h14.7v-3.5h-5.3V67.2c0-6.9,4.9-12.9,11.8-12.9c6,0,6.8,4.3,6.8,9.2V83h9.5v-3.5h-5.3V62.4z"
			/>
		<path class="st0" d="M241.1,71V53.8h7.9v-3.5h-7.9v-8.3h-4.1v8.3h-5.6v3.5h5.6v17.5c0,10.4,7.3,11.6,10.9,11.6l1.8,0v-3.6l-1.4,0
			C245.7,79.2,241.1,78.3,241.1,71z"/>
		<path class="st0" d="M284.4,78.2V50.4h-9.8v3.5h5.6v12c0,6.7-4.5,13.2-11.4,13.2c-6.1,0-6.8-4.3-6.8-9.2V50.4h-9.8v3.5h5.6v17
			c0,8.1,3,12.1,10.2,12.1c7.7,0,11.5-5.6,12.3-8h0.1c0,0-0.1,1.8-0.1,3v1.5c0,2.4,1.1,3.5,3.7,3.5h5.3v-3.4h-3.5
			C284.9,79.6,284.4,79.2,284.4,78.2z"/>
		<path class="st0" d="M310.4,54.4l1.4,0v-4l-1.5,0c-3.9,0-7.3,1.6-9.8,6.2v-2.7c0-2.5-1.2-3.5-3.8-3.5h-5.9v3.5h4.2
			c0.9,0,1.4,0.4,1.4,1.4v24.3h-4.8V83h13.9v-3.5h-4.8V69C300.5,62.8,303.4,54.4,310.4,54.4z"/>
		<path class="st0" d="M326.2,50.3c-8.4,0-15.3,6.1-15.3,16.3c0,9.6,7,16.3,16.3,16.3c7.1,0,11.5-4.3,11.5-4.3l-1.9-3.2
			c0,0-3.8,3.7-9.5,3.7c-6.4,0-11.9-4.5-12.1-12.5h23.9c0,0,0.2-1.2,0.2-2C339.3,57,334.8,50.3,326.2,50.3z M315.4,63.6
			c1-6.3,5.5-9.7,10.7-9.7c4.6,0,8.5,3.2,8.8,9.7H315.4z"/>
		<path class="st0" d="M366.8,37.5c-12.9,0-22.7,9.8-22.7,22.4c0,12.9,9.8,23,22.7,23c12.9,0,22.7-10.1,22.7-23
			C389.5,47.4,379.7,37.5,366.8,37.5z M366.8,75.6c-8,0-14.5-6.7-14.5-15.7c0-8.7,6.4-15.1,14.5-15.1c8,0,14.5,6.4,14.5,15.1
			C381.3,69,374.8,75.6,366.8,75.6z"/>
		<path class="st0" d="M415,65.1c0,5.6-3.2,10.6-8.8,10.6c-3.9,0-4.9-2.6-4.9-6.4V50.4h-7.9v20.5c0,8.6,4.2,12,11,12
			c5.4,0,9.1-1.3,11-4.2V83h7.5V50.4H415V65.1z"/>
		<rect x="453.8" y="75.8" class="st0" width="6.9" height="7.1"/>
		<polygon class="st0" points="460.7,71.7 461.3,38.3 453.2,38.3 453.8,71.7 		"/>
		<path class="st0" d="M438.2,42h-7.7v8.4h-4.3v6.2h4.1v14.4c0,10.5,8.7,11.9,13.1,11.9l1.9,0v-7.2h-1.9c-2.2,0-5.2-1.3-5.2-5.7
			V56.7h7.2v-6.2h-7.2V42z"/>
	</g>
</g>
</svg>
