<?xml version="1.0" encoding="utf-8"?>
<!-- Generator: Adobe Illustrator 19.0.1, SVG Export Plug-In . SVG Version: 6.00 Build 0)  -->
<!DOCTYPE svg PUBLIC "-//W3C//DTD SVG 1.1//EN" "http://www.w3.org/Graphics/SVG/1.1/DTD/svg11.dtd">
<svg version="1.1" id="Layer_1" xmlns="http://www.w3.org/2000/svg" xmlns:xlink="http://www.w3.org/1999/xlink" x="0px" y="0px"
	 width="331.8px" height="167.7px" viewBox="0 0 331.8 167.7" style="enable-background:new 0 0 331.8 167.7;" xml:space="preserve"
	>
<style type="text/css">
	.st0{fill:#FFFFFF;}
</style>
<g>
	<g>
		<g>
			<path class="st0" d="M146.2,0h5.2l14.6,32.1L180.8,0h5l-17.9,37.5h-3.7L146.2,0z"/>
		</g>
		<g>
			<path class="st0" d="M185.9,121.2h-5.2l-14.6-32.1l-14.7,32.1h-5l17.9-37.5h3.7L185.9,121.2z"/>
		</g>
		<g>
			<g>
				<path class="st0" d="M109.2,31.8l3.7-3.7l33,12.3L133.6,7.4l3.5-3.5L151,43l-2.6,2.6L109.2,31.8z"/>
			</g>
			<g>
				<path class="st0" d="M222.9,89.4l-3.7,3.7l-33-12.3l12.3,33.1l-3.5,3.5l-13.9-39.2l2.6-2.6L222.9,89.4z"/>
			</g>
		</g>
		<g>
			<g>
				<path class="st0" d="M105.5,80.4v-5.2l32.1-14.6l-32.1-14.7v-5L143,58.8l0,3.7L105.5,80.4z"/>
			</g>
			<g>
				<path class="st0" d="M226.7,40.8v5.2l-32.1,14.6l32.1,14.7l0,5l-37.5-17.9v-3.7L226.7,40.8z"/>
			</g>
		</g>
		<g>
			<g>
				<path class="st0" d="M137.2,117.5l-3.7-3.7l12.3-33L112.8,93l-3.5-3.5l39.2-13.9l2.6,2.6L137.2,117.5z"/>
			</g>
			<g>
				<path class="st0" d="M194.9,3.7l3.7,3.7l-12.3,33l33.1-12.3l3.5,3.5l-39.2,13.9l-2.6-2.6L194.9,3.7z"/>
			</g>
		</g>
	</g>
	<g>
		<polygon class="st0" points="42.2,127 42.2,123.4 28.2,123.4 28.2,127 33.1,127 21.2,162.5 9,127 14,127 14,123.4 0,123.4 0,127 
			4.5,127 18.7,167.6 23.4,167.6 37.7,127 		"/>
		<path class="st0" d="M51.3,135.1c-8.4,0-15.3,6.1-15.3,16.3c0,9.6,7,16.3,16.3,16.3c7.1,0,11.5-4.3,11.5-4.3l-1.9-3.2
			c0,0-3.8,3.7-9.5,3.7c-6.4,0-11.9-4.5-12.1-12.5h23.9c0,0,0.2-1.2,0.2-2C64.4,141.7,59.9,135.1,51.3,135.1z M40.5,148.3
			c1-6.3,5.5-9.7,10.7-9.7c4.6,0,8.5,3.2,8.8,9.7H40.5z"/>
		<path class="st0" d="M98.5,147.1c0-7.7-2.7-12.1-10.3-12.1c-7.8,0-11.7,4.5-12.6,6.8l0-3.3c0-2.4-1.2-3.5-3.8-3.5h-5.9v3.5h4.2
			c0.9,0,1.4,0.4,1.4,1.4v24.3h-5.3v3.5h14.7v-3.5h-5.3V152c0-6.9,4.9-12.9,11.8-12.9c6,0,6.8,4.3,6.8,9.2v19.4h9.5v-3.5h-5.3V147.1
			z"/>
		<path class="st0" d="M111.5,155.7v-17.1h7.9v-3.5h-7.9v-8.2h-4.1v8.2h-5.6v3.5h5.6v17.5c0,10.4,7.3,11.6,10.9,11.6l1.8,0V164
			l-1.4,0C116.2,164,111.5,163,111.5,155.7z"/>
		<path class="st0" d="M154.9,163v-27.8h-9.8v3.5h5.6v12c0,6.7-4.5,13.2-11.4,13.2c-6.1,0-6.8-4.3-6.8-9.2v-19.4h-9.8v3.5h5.6v17
			c0,8.1,3,12.1,10.2,12.1c7.7,0,11.5-5.6,12.3-8h0.1c0,0-0.1,1.8-0.1,3v1.5c0,2.4,1.1,3.5,3.7,3.5h5.3v-3.4h-3.5
			C155.4,164.3,154.9,163.9,154.9,163z"/>
		<path class="st0" d="M180.8,139.2l1.4,0v-4l-1.5,0c-3.9,0-7.3,1.6-9.8,6.2v-2.7c0-2.5-1.2-3.5-3.8-3.5h-5.9v3.5h4.2
			c0.9,0,1.4,0.4,1.4,1.4v24.3h-4.8v3.5h13.9v-3.5H171v-10.5C171,147.6,173.8,139.2,180.8,139.2z"/>
		<path class="st0" d="M196.7,135.1c-8.4,0-15.3,6.1-15.3,16.3c0,9.6,7,16.3,16.3,16.3c7.1,0,11.5-4.3,11.5-4.3l-1.9-3.2
			c0,0-3.8,3.7-9.5,3.7c-6.4,0-11.9-4.5-12.1-12.5h23.9c0,0,0.2-1.2,0.2-2C209.7,141.7,205.3,135.1,196.7,135.1z M185.8,148.3
			c1-6.3,5.5-9.7,10.7-9.7c4.6,0,8.5,3.2,8.8,9.7H185.8z"/>
		<path class="st0" d="M237.2,122.3c-12.9,0-22.7,9.8-22.7,22.4c0,12.9,9.8,23,22.7,23c12.9,0,22.7-10.1,22.7-23
			C259.9,132.1,250.2,122.3,237.2,122.3z M237.2,160.4c-8,0-14.5-6.7-14.5-15.7c0-8.7,6.4-15.1,14.5-15.1c8,0,14.5,6.4,14.5,15.1
			C251.7,153.7,245.3,160.4,237.2,160.4z"/>
		<path class="st0" d="M285.5,149.9c0,5.6-3.2,10.6-8.8,10.6c-3.9,0-4.9-2.6-4.9-6.4v-18.9h-7.9v20.5c0,8.6,4.2,12,11,12
			c5.4,0,9.1-1.3,11-4.2v4.3h7.5v-32.6h-7.9V149.9z"/>
		<rect x="324.3" y="160.6" class="st0" width="6.9" height="7.1"/>
		<polygon class="st0" points="331.2,156.4 331.8,123 323.6,123 324.3,156.4 		"/>
		<path class="st0" d="M308.7,126.8H301v8.4h-4.3v6.2h4.1v14.4c0,10.5,8.7,11.9,13.1,11.9l1.9,0v-7.2h-1.9c-2.2,0-5.2-1.2-5.2-5.7
			v-13.5h7.2v-6.2h-7.2V126.8z"/>
	</g>
</g>
</svg>
